<svg width="20" height="20" viewBox="0 0 20 20" fill="none" xmlns="http://www.w3.org/2000/svg">
<path d="M7.57432 7.49995C7.77024 6.94301 8.15695 6.47337 8.66595 6.17423C9.17495 5.87508 9.7734 5.76573 10.3553 5.86554C10.9372 5.96536 11.465 6.26789 11.8452 6.71956C12.2254 7.17123 12.4335 7.74289 12.4327 8.33328C12.4327 9.99995 9.93265 10.8333 9.93265 10.8333M9.99935 14.1666H10.0077M1.66602 7.10224V12.8977C1.66602 13.1015 1.66602 13.2034 1.68904 13.2993C1.70945 13.3843 1.74312 13.4656 1.78882 13.5402C1.84035 13.6243 1.91241 13.6964 2.05654 13.8405L6.15882 17.9428C6.30295 18.0869 6.37501 18.159 6.45911 18.2105C6.53367 18.2562 6.61496 18.2899 6.69999 18.3103C6.7959 18.3333 6.89781 18.3333 7.10163 18.3333H12.8971C13.1009 18.3333 13.2028 18.3333 13.2987 18.3103C13.3837 18.2899 13.465 18.2562 13.5396 18.2105C13.6237 18.159 13.6957 18.0869 13.8399 17.9428L17.9422 13.8405C18.0863 13.6964 18.1583 13.6243 18.2099 13.5402C18.2556 13.4656 18.2892 13.3843 18.3097 13.2993C18.3327 13.2034 18.3327 13.1015 18.3327 12.8977V7.10224C18.3327 6.89842 18.3327 6.79651 18.3097 6.7006C18.2892 6.61557 18.2556 6.53428 18.2099 6.45972C18.1583 6.37562 18.0863 6.30356 17.9422 6.15943L13.8399 2.05715C13.6957 1.91302 13.6237 1.84096 13.5396 1.78943C13.465 1.74374 13.3837 1.71006 13.2987 1.68965C13.2028 1.66663 13.1009 1.66663 12.8971 1.66663H7.10163C6.89781 1.66663 6.7959 1.66663 6.69999 1.68965C6.61496 1.71006 6.53367 1.74374 6.45911 1.78943C6.37501 1.84096 6.30295 1.91302 6.15882 2.05715L2.05654 6.15943C1.91241 6.30356 1.84035 6.37562 1.78882 6.45972C1.74312 6.53428 1.70945 6.61557 1.68904 6.7006C1.66602 6.79651 1.66602 6.89842 1.66602 7.10224Z" stroke="#FFF3E7" stroke-linecap="round" stroke-linejoin="round"/>
</svg>
