<svg width="128" height="32" viewBox="0 0 128 32" fill="none" xmlns="http://www.w3.org/2000/svg">
<g opacity="0.4">
<path d="M27.1396 0C25.8871 4.41047 24.4422 8.7673 23.4358 13.2472C22.9626 15.3578 22.2654 18.175 22.1171 20.2888C22.0761 20.8724 21.8931 21.9892 22.8175 21.3046C23.5178 20.7872 25.5748 16.7995 26.1206 15.7774C28.818 10.6949 31.1873 5.29382 33.4461 0H41.166C39.5539 5.16132 37.6768 10.2501 36.2035 15.4587C35.5062 17.9195 33.9509 22.7748 34.2254 25.1662C34.4494 27.1127 36.5 23.5193 36.6861 23.4909C37.03 23.4058 38.0396 24.4469 38.0017 24.6614C37.9607 24.8948 35.4053 27.9109 35.0235 28.3178C33.0108 30.4726 28.777 33.9776 26.537 30.1792C23.9217 25.7403 28.6918 17.6166 29.8685 13.2219C30.0484 12.5468 30.0168 11.7739 29.4963 12.6919C28.2627 14.8751 27.3036 17.6324 26.1711 19.9323C24.7356 22.8505 20.6911 31.1446 17.4132 31.8292C12.4696 32.8608 13.3466 25.469 13.7915 22.6833C13.8861 22.0807 14.8483 18.6041 14.6906 18.459C14.6717 18.4432 14.2458 18.3927 14.2079 18.5568C13.3277 20.4244 12.4412 22.2984 11.4096 24.0872C9.97095 26.5795 6.58581 32.2267 3.27953 31.8576C-1.20349 31.356 -0.077215 24.6172 0.821915 21.617H7.91399C7.82881 22.4814 7.34297 23.3584 7.28303 24.2229C7.2641 24.5257 7.18207 25.2703 7.65214 25.2261C9.12546 25.0873 12.4633 18.2949 13.1416 16.8342C15.6528 11.4111 17.5173 5.66925 19.4165 0.00630968H27.1364L27.1396 0Z" fill="#050625"/>
<path d="M67.7522 3.82686C68.6103 4.62819 67.3011 6.92176 66.8152 7.77672C64.3324 12.1493 59.3162 16.809 55.1707 19.6231C54.6565 19.9702 51.7635 21.5665 51.6657 21.8031C51.2808 22.737 51.1546 26.9298 52.3029 27.2673C53.6217 27.6554 54.076 24.4374 54.0917 23.5856C54.1012 22.9547 53.7226 21.3772 53.9971 20.9703C54.1548 20.7368 57.9028 19.3329 58.4927 19.0837C60.0702 24.2103 56.7387 33.8483 49.9526 31.498C47.0501 30.4947 45.8481 26.9676 45.886 24.1314L42.1065 25.2356C41.9961 25.122 42.952 22.4089 43.1287 22.2385C43.5009 21.8757 45.9112 21.6738 46.1699 21.4182C46.252 21.3362 46.7315 19.5664 46.8735 19.2035C49.4983 12.6036 54.2842 6.90598 61.0923 4.4105C62.4647 3.90888 66.6385 2.7826 67.7522 3.8237V3.82686ZM63.5373 7.41391C63.2629 7.36659 63.0452 7.45177 62.796 7.53695C59.9471 8.49602 55.5398 13.5974 53.8898 16.1339C53.4135 16.869 52.792 17.746 52.6658 18.6136C53.3188 19.3077 59.9408 12.7487 60.5465 12.0736C61.0229 11.5436 64.0863 7.95654 63.5342 7.41707L63.5373 7.41391Z" fill="#050625"/>
<path d="M84.1833 7.09844C84.2559 6.98172 86.0163 6.09836 86.3065 5.9911C91.1745 4.2023 95.2631 6.2561 95.6827 11.5972C96.1213 17.1435 91.9222 31.1383 85.3633 31.8671C75.823 32.924 79.0693 17.1056 85.2244 14.2189C87.3413 13.2251 89.8936 13.3324 91.0357 15.6197C91.5436 15.402 91.471 11.9632 91.3575 11.3543C90.8937 8.80521 88.6664 7.39185 86.1867 8.2405C85.4421 8.49604 84.8995 9.05129 84.1802 9.30999C84.2654 8.91879 84.0635 7.28774 84.1802 7.1016L84.1833 7.09844ZM87.3887 17.4053C86.092 18.5379 84.6219 22.6581 84.502 24.3712C84.2307 28.1539 86.2308 28.7059 87.9944 25.5006C89.0323 23.6109 90.0387 19.8724 89.6917 17.7523C89.4835 16.4746 88.1616 16.7302 87.3918 17.4022L87.3887 17.4053Z" fill="#050625"/>
<path d="M79.2982 13.8815L75.1969 27.6808C75.159 27.8953 75.2127 27.9868 75.4367 27.9174C75.749 27.8227 76.7617 26.8416 76.9352 26.9741C76.9352 27.3874 77.3737 28.0057 77.38 28.3464C77.3895 28.949 73.3071 31.6748 72.5689 31.8294C71.2344 32.107 69.9946 31.6937 69.5781 30.3214C69.2122 29.1225 69.739 28.1571 69.7706 26.9741C68.1648 28.5389 65.0162 31.9335 62.6753 31.8735C61.2083 31.8357 60.5647 30.7946 60.4102 29.4348C61.2746 25.7248 62.71 22.1535 63.5429 18.456C63.0129 18.3109 60.7446 20.0965 60.5521 19.8757C60.6373 19.311 60.3912 18.3109 60.6278 17.825C60.7225 17.6326 63.7322 15.6734 64.1865 15.3958C65.42 14.645 67.1931 13.3325 68.6569 13.5786C69.6475 13.7458 69.7485 14.8374 69.6475 15.6577C69.2658 18.7431 66.8586 23.1062 66.1362 26.3368C66.0889 26.5513 66.0352 26.7532 66.0668 26.9741C68.1174 26.4125 70.023 23.9454 71.0767 22.1345C72.5847 19.5413 73.2567 16.5663 74.4965 13.8846H79.3013L79.2982 13.8815Z" fill="#050625"/>
<path d="M94.2743 31.2297C94.1923 31.1603 93.6465 29.2327 93.6686 29.1254C93.7506 28.6932 95.3091 28.2452 95.3785 27.9676C95.4669 27.6142 95.1956 26.5227 95.2082 25.9422C95.3249 20.579 98.7542 15.7268 103.916 14.1525C105.739 13.5973 110.314 13.1272 110.904 15.6069C111.859 19.6167 106.827 23.8379 103.9 25.8128C103.543 26.0526 101.392 27.2262 101.357 27.3713C101.3 27.6174 101.786 27.9487 101.978 28.0086C103.975 28.6269 106.386 26.2766 107.891 25.2386C108.001 25.2639 108.922 26.6804 108.919 26.8981C108.903 27.5322 105.944 29.9331 105.285 30.3526C102.502 32.1194 99.0413 32.7346 96.5301 30.1444C96.0821 30.2201 94.6372 31.5389 94.2743 31.2297ZM106.995 16.6007C106.856 16.4587 106.562 16.4146 106.364 16.4366C103.698 16.7395 100.739 22.5602 100.89 25.0778C100.991 25.1976 102.25 24.1029 102.392 23.9799C103.682 22.8252 106.859 19.5063 107.156 17.8658C107.219 17.5219 107.244 16.8562 106.998 16.6007H106.995Z" fill="#050625"/>
<path d="M122.157 13.8814C122.227 14.1558 122.044 14.1969 121.921 14.3546C119.93 16.9573 117.791 18.0805 116.299 21.5035C115.614 23.0746 114.617 27.6617 117.207 27.9173C119.797 28.1728 121.987 22.8916 122.514 20.9419C123.738 16.3926 121.388 17.8375 119.715 20.3456C118.804 18.9922 118.286 19.0269 119.397 17.664C120.76 15.9951 126.076 11.1083 127.312 15.1086C128.549 19.1089 124.151 27.1538 121.056 29.7344C117.463 32.7315 112.037 33.0723 110.86 27.6365C109.664 22.125 113.399 17.3549 117.195 13.8814H122.157Z" fill="#050625"/>
<path d="M38.8528 28.2896C40.5817 26.384 43.4873 28.8038 42.178 30.9081C40.5785 33.4793 36.7832 30.5705 38.8528 28.2896Z" fill="#050625"/>
</g>
</svg>
