<svg width="128" height="29" viewBox="0 0 128 29" fill="none" xmlns="http://www.w3.org/2000/svg">
<g opacity="0.4">
<path d="M76.9745 0.0105608C86.6693 -0.308599 101.224 6.62444 96.4495 18.3386C90.8279 32.1288 62.9251 31.5537 58.7823 17.2831C55.6666 6.55176 68.1043 0.304441 76.9745 0.0105608ZM75.3976 6.78244C69.4189 7.35756 60.0337 13.0487 67.7125 18.7652C73.0055 22.7057 82.2453 22.791 87.63 18.9895C91.798 16.0476 91.7949 12.382 87.63 9.44316C84.233 7.04472 79.4772 6.3906 75.3945 6.78244H75.3976Z" fill="#050625"/>
<path d="M13.3707 0.0105844C25.6916 -0.381256 32.2391 14.3601 24.3738 23.5873C17.9117 31.1713 5.92261 29.5661 1.47965 20.7591C-2.96331 11.9522 3.06281 0.342383 13.3707 0.0137427V0.0105844ZM12.4164 6.77298C4.09613 8.06542 4.73129 21.9094 13.9395 21.8367C24.1937 21.7545 23.3974 5.06658 12.4164 6.77298Z" fill="#050625"/>
<path d="M121.042 15.0802V3.35023C121.042 2.84463 121.807 1.71651 122.227 1.38155C124.108 -0.116289 126.787 0.84751 127.444 3.10375L127.523 26.8196C127.593 27.6886 126.588 28.1215 125.943 27.5906C120.669 23.3657 115.519 18.9733 110.229 14.7705C109.676 14.3312 109.069 13.7751 108.418 13.5065V25.2364C108.418 25.3407 107.969 26.2444 107.856 26.4087C106.13 28.9178 102.531 27.894 101.984 25.0436L102.029 1.22671C102.221 0.98655 102.623 0.594711 102.948 0.626311C109.139 5.21779 114.953 10.3465 121.042 15.0802Z" fill="#050625"/>
<path d="M42.2858 21.2203H53.8862C54.0347 21.2203 54.7173 21.6532 54.9005 21.7859C57.5992 23.7293 56.3162 27.5908 52.9477 27.8436C45.8693 28.3714 38.1431 27.4265 30.9952 27.8436C30.1767 27.7362 29.7217 26.8577 30.2968 26.1846L44.1818 7.36368H35.1063C33.8676 7.36368 32.237 5.99224 32.038 4.75668C31.6335 2.2508 33.1787 0.775084 35.574 0.588645C41.8687 0.0956846 48.7954 0.974164 55.1565 0.588645C56.0697 0.582325 56.8755 1.34073 56.3099 2.22869L42.2858 21.2266V21.2203Z" fill="#050625"/>
</g>
</svg>
